<?xml version="1.0" standalone="no"?>
<!DOCTYPE svg PUBLIC "-//W3C//DTD SVG 20010904//EN"
 "http://www.w3.org/TR/2001/REC-SVG-20010904/DTD/svg10.dtd">
<svg version="1.0" xmlns="http://www.w3.org/2000/svg"
 width="16.000000pt" height="16.000000pt" viewBox="0 0 16.000000 16.000000"
 preserveAspectRatio="xMidYMid meet">
<metadata>
Created by potrace 1.11, written by Peter Selinger 2001-2013
</metadata>
<g transform="translate(0.000000,16.000000) scale(0.002286,-0.002286)"
fill="#000000" stroke="none">
<path d="M0 3500 l0 -3500 3500 0 3500 0 0 3500 0 3500 -3500 0 -3500 0 0
-3500z m2430 2705 l0 -165 -297 -2 -298 -3 -3 -347 -2 -348 235 0 235 0 0
-170 0 -170 -235 0 -235 0 0 -475 0 -475 -180 0 -180 0 0 1160 0 1160 480 0
480 0 0 -165z m1130 -995 l186 -1155 -179 -3 c-99 -1 -182 0 -185 3 -3 2 -18
91 -33 197 -16 106 -31 199 -34 206 -3 9 -58 12 -225 12 -121 0 -220 -2 -220
-4 0 -2 -13 -94 -30 -204 -16 -111 -30 -204 -30 -207 0 -3 -76 -5 -170 -5 -93
0 -170 1 -170 3 0 4 358 2245 365 2285 l6 32 267 -2 266 -3 186 -1155z m679
248 c73 -502 136 -926 140 -941 4 -18 56 307 145 910 76 516 139 939 141 941
1 1 76 1 167 0 l164 -3 -177 -1150 c-98 -632 -178 -1153 -179 -1157 0 -5 -123
-8 -273 -8 l-273 0 -177 1153 c-98 633 -177 1155 -177 1160 0 4 82 7 183 7
l183 0 133 -912z m1291 -253 l0 -1165 -180 0 -180 0 0 1165 0 1165 180 0 180
0 0 -1165z m-1915 -2150 c177 -47 303 -179 353 -372 15 -62 17 -137 17 -793 0
-656 -2 -731 -17 -793 -51 -195 -175 -324 -359 -374 -102 -27 -283 -23 -380 9
-170 56 -269 160 -326 343 -17 56 -18 110 -18 815 0 830 -2 796 62 925 70 139
198 227 373 255 72 12 221 4 295 -15z m-1301 -1 c189 -49 306 -172 352 -370
11 -47 16 -124 17 -244 l2 -175 -172 -3 -173 -2 0 153 c0 174 -13 237 -58 280
-53 51 -149 62 -222 25 -35 -18 -51 -35 -70 -73 l-25 -50 0 -710 0 -710 25
-50 c29 -58 67 -83 138 -92 96 -11 172 35 197 120 11 38 15 100 15 244 l0 193
177 0 176 0 -6 -222 c-7 -247 -16 -299 -72 -415 -85 -174 -272 -264 -515 -250
-214 13 -358 100 -435 262 -61 130 -60 109 -60 925 0 674 2 751 17 807 53 190
169 310 348 357 76 20 265 20 344 0z m2547 -689 l184 -686 3 686 2 685 165 0
165 0 0 -1160 0 -1160 -190 0 -189 0 -9 32 c-5 18 -105 390 -223 826 l-214
793 -3 -826 -2 -825 -165 0 -165 0 0 1160 0 1160 228 0 228 0 185 -685z"/>
<path d="M3091 5938 c-10 -58 -171 -1131 -171 -1142 0 -14 22 -16 175 -16
l175 0 -5 28 c-3 15 -41 270 -85 567 -77 518 -86 578 -89 563z"/>
<path d="M3377 2739 c-56 -13 -83 -35 -109 -87 l-23 -47 0 -715 0 -716 25 -48
c32 -63 80 -89 160 -89 80 0 128 26 160 89 l25 48 0 716 0 716 -25 48 c-38 73
-123 107 -213 85z"/>
</g>
</svg>
